<svg width="47" height="36" viewBox="0 0 47 36" fill="none" xmlns="http://www.w3.org/2000/svg">
<g clip-path="url(#clip0_96_132)">
<path d="M47.0303 34.5345C47.0303 35.3145 46.2662 35.9443 45.32 35.9443H1.71038C0.764104 35.9485 0 35.3145 0 34.5345V34.28C0 32.9119 0.450366 31.6188 1.23977 30.5051C2.86412 28.2152 5.61692 26.6093 8.6531 25.725C12.0081 24.749 12.5849 24.6072 23.0597 24.3402C33.5345 24.0733 35.6751 25.1828 39.0806 26.6302C43.9587 28.7032 47.0253 30.4259 47.0253 34.5386L47.0303 34.5345Z" fill="#999440"/>
<path d="M47 16.6306V1.71115C47 0.76445 46.2364 0 45.2907 0H1.70927C0.763611 0 0 0.76445 0 1.71115V16.8533C0 17.1976 0.399505 17.39 0.667527 17.1723L14.3974 6.19153C14.8677 5.84728 15.5099 5.86247 15.96 6.23204L19.9297 13.2184C21.2648 14.889 23.3179 14.8182 24.6884 13.0108L31.4395 5.06258C32.0565 4.45507 33.0325 4.41963 33.695 4.97652L46.2212 16.9698C46.5145 17.2482 47 17.0406 47 16.6356V16.6306Z" fill="#999440"/>
<path d="M6.27576 0.88089H2.20991C1.88873 0.88089 1.62836 1.14155 1.62836 1.46309V3.27043C1.62836 3.59197 1.88873 3.85262 2.20991 3.85262H6.27576C6.59695 3.85262 6.85732 3.59197 6.85732 3.27043V1.46309C6.85732 1.14155 6.59695 0.88089 6.27576 0.88089Z" fill="#FFF9E5"/>
<path d="M13.9776 0.88089H9.91177C9.59059 0.88089 9.33022 1.14155 9.33022 1.46309V3.27043C9.33022 3.59197 9.59059 3.85262 9.91177 3.85262H13.9776C14.2988 3.85262 14.5592 3.59197 14.5592 3.27043V1.46309C14.5592 1.14155 14.2988 0.88089 13.9776 0.88089Z" fill="#FFF9E5"/>
<path d="M21.6795 0.88089H17.6136C17.2924 0.88089 17.0321 1.14155 17.0321 1.46309V3.27043C17.0321 3.59197 17.2924 3.85262 17.6136 3.85262H21.6795C22.0006 3.85262 22.261 3.59197 22.261 3.27043V1.46309C22.261 1.14155 22.0006 0.88089 21.6795 0.88089Z" fill="#FFF9E5"/>
<path d="M29.3813 0.88089H25.3155C24.9943 0.88089 24.7339 1.14155 24.7339 1.46309V3.27043C24.7339 3.59197 24.9943 3.85262 25.3155 3.85262H29.3813C29.7025 3.85262 29.9629 3.59197 29.9629 3.27043V1.46309C29.9629 1.14155 29.7025 0.88089 29.3813 0.88089Z" fill="#FFF9E5"/>
<path d="M37.0832 0.88089H33.0173C32.6961 0.88089 32.4358 1.14155 32.4358 1.46309V3.27043C32.4358 3.59197 32.6961 3.85262 33.0173 3.85262H37.0832C37.4044 3.85262 37.6647 3.59197 37.6647 3.27043V1.46309C37.6647 1.14155 37.4044 0.88089 37.0832 0.88089Z" fill="#FFF9E5"/>
<path d="M44.785 0.88089H40.7192C40.398 0.88089 40.1376 1.14155 40.1376 1.46309V3.27043C40.1376 3.59197 40.398 3.85262 40.7192 3.85262H44.785C45.1062 3.85262 45.3666 3.59197 45.3666 3.27043V1.46309C45.3666 1.14155 45.1062 0.88089 44.785 0.88089Z" fill="#FFF9E5"/>
<path d="M6.27576 32.0866H2.20991C1.88873 32.0866 1.62836 32.3473 1.62836 32.6688V34.4762C1.62836 34.7977 1.88873 35.0584 2.20991 35.0584H6.27576C6.59695 35.0584 6.85732 34.7977 6.85732 34.4762V32.6688C6.85732 32.3473 6.59695 32.0866 6.27576 32.0866Z" fill="#FFF9E5"/>
<path d="M13.9776 32.0866H9.91177C9.59059 32.0866 9.33022 32.3473 9.33022 32.6688V34.4762C9.33022 34.7977 9.59059 35.0584 9.91177 35.0584H13.9776C14.2988 35.0584 14.5592 34.7977 14.5592 34.4762V32.6688C14.5592 32.3473 14.2988 32.0866 13.9776 32.0866Z" fill="#FFF9E5"/>
<path d="M21.6795 32.0866H17.6136C17.2924 32.0866 17.0321 32.3473 17.0321 32.6688V34.4762C17.0321 34.7977 17.2924 35.0584 17.6136 35.0584H21.6795C22.0006 35.0584 22.261 34.7977 22.261 34.4762V32.6688C22.261 32.3473 22.0006 32.0866 21.6795 32.0866Z" fill="#FFF9E5"/>
<path d="M29.3813 32.0866H25.3155C24.9943 32.0866 24.7339 32.3473 24.7339 32.6688V34.4762C24.7339 34.7977 24.9943 35.0584 25.3155 35.0584H29.3813C29.7025 35.0584 29.9629 34.7977 29.9629 34.4762V32.6688C29.9629 32.3473 29.7025 32.0866 29.3813 32.0866Z" fill="#FFF9E5"/>
<path d="M37.0832 32.0866H33.0173C32.6961 32.0866 32.4358 32.3473 32.4358 32.6688V34.4762C32.4358 34.7977 32.6961 35.0584 33.0173 35.0584H37.0832C37.4044 35.0584 37.6647 34.7977 37.6647 34.4762V32.6688C37.6647 32.3473 37.4044 32.0866 37.0832 32.0866Z" fill="#FFF9E5"/>
<path d="M44.785 32.0866H40.7192C40.398 32.0866 40.1376 32.3473 40.1376 32.6688V34.4762C40.1376 34.7977 40.398 35.0584 40.7192 35.0584H44.785C45.1062 35.0584 45.3666 34.7977 45.3666 34.4762V32.6688C45.3666 32.3473 45.1062 32.0866 44.785 32.0866Z" fill="#FFF9E5"/>
</g>
<defs>
<clipPath id="clip0_96_132">
<rect width="47" height="36" fill="white"/>
</clipPath>
</defs>
</svg>
