<svg width="93" height="72" viewBox="0 0 93 72" fill="none" xmlns="http://www.w3.org/2000/svg">
<g clip-path="url(#clip0_86_165)">
<path d="M93 68.2151C93 69.7559 91.489 71 89.6178 71H3.38218C1.51097 71.0082 0 69.7559 0 68.2151V67.7125C0 65.0101 0.890575 62.456 2.45158 60.2561C5.66365 55.7328 11.1072 52.5608 17.111 50.8141C23.7453 48.8861 24.8861 48.606 45.5994 48.0787C66.3128 47.5514 70.5455 49.743 77.2799 52.602C86.9261 56.6968 92.99 60.0996 92.99 68.2234L93 68.2151Z" fill="#999440"/>
<path d="M92.94 32.85V3.38C92.94 1.51 91.43 0 89.56 0H3.38C1.51 0 0 1.51 0 3.38V33.29C0 33.97 0.79 34.35 1.32 33.92L28.47 12.23C29.4 11.55 30.67 11.58 31.56 12.31L39.41 26.11C42.05 29.41 46.11 29.27 48.82 25.7L62.17 10C63.39 8.8 65.32 8.73 66.63 9.83L91.4 33.52C91.98 34.07 92.94 33.66 92.94 32.86V32.85Z" fill="#999440"/>
<path d="M12.41 1.74H4.37C3.73487 1.74 3.22 2.25487 3.22 2.89V6.46C3.22 7.09513 3.73487 7.61 4.37 7.61H12.41C13.0451 7.61 13.56 7.09513 13.56 6.46V2.89C13.56 2.25487 13.0451 1.74 12.41 1.74Z" fill="#FFF9E5"/>
<path d="M27.64 1.74H19.6C18.9649 1.74 18.45 2.25487 18.45 2.89V6.46C18.45 7.09513 18.9649 7.61 19.6 7.61H27.64C28.2751 7.61 28.79 7.09513 28.79 6.46V2.89C28.79 2.25487 28.2751 1.74 27.64 1.74Z" fill="#FFF9E5"/>
<path d="M42.87 1.74H34.83C34.1949 1.74 33.68 2.25487 33.68 2.89V6.46C33.68 7.09513 34.1949 7.61 34.83 7.61H42.87C43.5051 7.61 44.02 7.09513 44.02 6.46V2.89C44.02 2.25487 43.5051 1.74 42.87 1.74Z" fill="#FFF9E5"/>
<path d="M58.1 1.74H50.06C49.4249 1.74 48.91 2.25487 48.91 2.89V6.46C48.91 7.09513 49.4249 7.61 50.06 7.61H58.1C58.7351 7.61 59.25 7.09513 59.25 6.46V2.89C59.25 2.25487 58.7351 1.74 58.1 1.74Z" fill="#FFF9E5"/>
<path d="M73.33 1.74H65.29C64.6549 1.74 64.14 2.25487 64.14 2.89V6.46C64.14 7.09513 64.6549 7.61 65.29 7.61H73.33C73.9651 7.61 74.48 7.09513 74.48 6.46V2.89C74.48 2.25487 73.9651 1.74 73.33 1.74Z" fill="#FFF9E5"/>
<path d="M88.56 1.74H80.52C79.8849 1.74 79.37 2.25487 79.37 2.89V6.46C79.37 7.09513 79.8849 7.61 80.52 7.61H88.56C89.1951 7.61 89.71 7.09513 89.71 6.46V2.89C89.71 2.25487 89.1951 1.74 88.56 1.74Z" fill="#FFF9E5"/>
<path d="M12.41 63.38H4.37C3.73487 63.38 3.22 63.8949 3.22 64.53V68.1C3.22 68.7351 3.73487 69.25 4.37 69.25H12.41C13.0451 69.25 13.56 68.7351 13.56 68.1V64.53C13.56 63.8949 13.0451 63.38 12.41 63.38Z" fill="#FFF9E5"/>
<path d="M27.64 63.38H19.6C18.9649 63.38 18.45 63.8949 18.45 64.53V68.1C18.45 68.7351 18.9649 69.25 19.6 69.25H27.64C28.2751 69.25 28.79 68.7351 28.79 68.1V64.53C28.79 63.8949 28.2751 63.38 27.64 63.38Z" fill="#FFF9E5"/>
<path d="M42.87 63.38H34.83C34.1949 63.38 33.68 63.8949 33.68 64.53V68.1C33.68 68.7351 34.1949 69.25 34.83 69.25H42.87C43.5051 69.25 44.02 68.7351 44.02 68.1V64.53C44.02 63.8949 43.5051 63.38 42.87 63.38Z" fill="#FFF9E5"/>
<path d="M58.1 63.38H50.06C49.4249 63.38 48.91 63.8949 48.91 64.53V68.1C48.91 68.7351 49.4249 69.25 50.06 69.25H58.1C58.7351 69.25 59.25 68.7351 59.25 68.1V64.53C59.25 63.8949 58.7351 63.38 58.1 63.38Z" fill="#FFF9E5"/>
<path d="M73.33 63.38H65.29C64.6549 63.38 64.14 63.8949 64.14 64.53V68.1C64.14 68.7351 64.6549 69.25 65.29 69.25H73.33C73.9651 69.25 74.48 68.7351 74.48 68.1V64.53C74.48 63.8949 73.9651 63.38 73.33 63.38Z" fill="#FFF9E5"/>
<path d="M88.56 63.38H80.52C79.8849 63.38 79.37 63.8949 79.37 64.53V68.1C79.37 68.7351 79.8849 69.25 80.52 69.25H88.56C89.1951 69.25 89.71 68.7351 89.71 68.1V64.53C89.71 63.8949 89.1951 63.38 88.56 63.38Z" fill="#FFF9E5"/>
</g>
<defs>
<clipPath id="clip0_86_165">
<rect width="92.94" height="71.11" fill="white"/>
</clipPath>
</defs>
</svg>
