<svg width="149" height="105" viewBox="0 0 149 105" fill="none" xmlns="http://www.w3.org/2000/svg">
<g clip-path="url(#clip0_93_45)">
<path d="M149.096 100.725C149.096 103 146.674 104.838 143.674 104.838H5.42226C2.42237 104.85 0 103 0 100.725V99.9834C0 95.993 1.42776 92.2216 3.93034 88.9733C9.07988 82.2943 17.8068 77.6105 27.4322 75.0313C38.0681 72.1845 39.8969 71.7709 73.1043 70.9923C106.312 70.2137 113.098 73.4498 123.894 77.6713C139.359 83.7177 149.08 88.7422 149.08 100.738L149.096 100.725Z" fill="#999440"/>
<path d="M149 48.5058V4.99086C149 2.22964 146.579 0 143.581 0H5.41877C2.42081 0 0 2.22964 0 4.99086V49.1555C0 50.1596 1.26652 50.7207 2.1162 50.0858L45.6427 18.0586C47.1336 17.0546 49.1697 17.0989 50.5965 18.1768L63.1815 38.5536C67.4139 43.4264 73.9229 43.2197 78.2675 37.9483L99.67 14.7659C101.626 12.994 104.72 12.8906 106.82 14.5148L146.531 49.4952C147.461 50.3073 149 49.7019 149 48.5206V48.5058Z" fill="#999440"/>
<path d="M19.8955 2.56926H7.00589C5.98767 2.56926 5.16223 3.32951 5.16223 4.26733V9.53874C5.16223 10.4766 5.98767 11.2368 7.00589 11.2368H19.8955C20.9137 11.2368 21.7392 10.4766 21.7392 9.53874V4.26733C21.7392 3.32951 20.9137 2.56926 19.8955 2.56926Z" fill="#FFF9E5"/>
<path d="M44.312 2.56926H31.4224C30.4042 2.56926 29.5787 3.32951 29.5787 4.26733V9.53874C29.5787 10.4766 30.4042 11.2368 31.4224 11.2368H44.312C45.3302 11.2368 46.1557 10.4766 46.1557 9.53874V4.26733C46.1557 3.32951 45.3302 2.56926 44.312 2.56926Z" fill="#FFF9E5"/>
<path d="M68.7285 2.56926H55.8389C54.8207 2.56926 53.9952 3.32951 53.9952 4.26733V9.53874C53.9952 10.4766 54.8207 11.2368 55.8389 11.2368H68.7285C69.7467 11.2368 70.5722 10.4766 70.5722 9.53874V4.26733C70.5722 3.32951 69.7467 2.56926 68.7285 2.56926Z" fill="#FFF9E5"/>
<path d="M93.145 2.56926H80.2554C79.2372 2.56926 78.4117 3.32951 78.4117 4.26733V9.53874C78.4117 10.4766 79.2372 11.2368 80.2554 11.2368H93.145C94.1632 11.2368 94.9887 10.4766 94.9887 9.53874V4.26733C94.9887 3.32951 94.1632 2.56926 93.145 2.56926Z" fill="#FFF9E5"/>
<path d="M117.562 2.56926H104.672C103.654 2.56926 102.828 3.32951 102.828 4.26733V9.53874C102.828 10.4766 103.654 11.2368 104.672 11.2368H117.562C118.58 11.2368 119.405 10.4766 119.405 9.53874V4.26733C119.405 3.32951 118.58 2.56926 117.562 2.56926Z" fill="#FFF9E5"/>
<path d="M141.978 2.56926H129.088C128.07 2.56926 127.245 3.32951 127.245 4.26733V9.53874C127.245 10.4766 128.07 11.2368 129.088 11.2368H141.978C142.996 11.2368 143.822 10.4766 143.822 9.53874V4.26733C143.822 3.32951 142.996 2.56926 141.978 2.56926Z" fill="#FFF9E5"/>
<path d="M19.8955 93.586H7.00589C5.98767 93.586 5.16223 94.3462 5.16223 95.2841V100.555C5.16223 101.493 5.98767 102.254 7.00589 102.254H19.8955C20.9137 102.254 21.7392 101.493 21.7392 100.555V95.2841C21.7392 94.3462 20.9137 93.586 19.8955 93.586Z" fill="#FFF9E5"/>
<path d="M44.312 93.586H31.4224C30.4042 93.586 29.5787 94.3462 29.5787 95.2841V100.555C29.5787 101.493 30.4042 102.254 31.4224 102.254H44.312C45.3302 102.254 46.1557 101.493 46.1557 100.555V95.2841C46.1557 94.3462 45.3302 93.586 44.312 93.586Z" fill="#FFF9E5"/>
<path d="M68.7285 93.586H55.8389C54.8207 93.586 53.9952 94.3462 53.9952 95.2841V100.555C53.9952 101.493 54.8207 102.254 55.8389 102.254H68.7285C69.7467 102.254 70.5722 101.493 70.5722 100.555V95.2841C70.5722 94.3462 69.7467 93.586 68.7285 93.586Z" fill="#FFF9E5"/>
<path d="M93.145 93.586H80.2554C79.2372 93.586 78.4117 94.3462 78.4117 95.2841V100.555C78.4117 101.493 79.2372 102.254 80.2554 102.254H93.145C94.1632 102.254 94.9887 101.493 94.9887 100.555V95.2841C94.9887 94.3462 94.1632 93.586 93.145 93.586Z" fill="#FFF9E5"/>
<path d="M117.562 93.586H104.672C103.654 93.586 102.828 94.3462 102.828 95.2841V100.555C102.828 101.493 103.654 102.254 104.672 102.254H117.562C118.58 102.254 119.405 101.493 119.405 100.555V95.2841C119.405 94.3462 118.58 93.586 117.562 93.586Z" fill="#FFF9E5"/>
<path d="M141.978 93.586H129.088C128.07 93.586 127.245 94.3462 127.245 95.2841V100.555C127.245 101.493 128.07 102.254 129.088 102.254H141.978C142.996 102.254 143.822 101.493 143.822 100.555V95.2841C143.822 94.3462 142.996 93.586 141.978 93.586Z" fill="#FFF9E5"/>
</g>
<defs>
<clipPath id="clip0_93_45">
<rect width="149" height="105" fill="white"/>
</clipPath>
</defs>
</svg>
